<?xml version="1.0" encoding="utf-8"?>
<svg xmlns="http://www.w3.org/2000/svg" style="margin: auto; background: rgb(241, 242, 243); display: block; shape-rendering: auto;" width="280" height="250" preserveAspectRatio="xMidYMid">
<style type="text/css">
  text {
    text-anchor: middle; font-size: 46px; opacity: 0;
  }
</style>
<g style="transform-origin:140px 125px;transform:scale(1)">
<g transform="translate(140,125)">
  <g transform="translate(0,0)"><g class="path" style="opacity: 1; transform-origin: -106.81px -4.10582px; animation: 1s linear -0.6s infinite normal forwards running fade-5cf37fad-0164-4b3c-957d-7e385e234527;"><path d="M22.59 0L8.28-26.59L8.28 0L4.14 0L4.14-32.20L9.94-32.20L24.15-5.43L24.15-32.20L28.29-32.20L28.29 0L22.59 0" fill="#ff9b4f" stroke="none" stroke-width="none" transform="translate(-123.02496337890625,11.99417802290482)" style="fill: rgb(255, 155, 79);"></path></g><g class="path" style="opacity: 1; transform-origin: -77.97px 0.0341778px; animation: 1s linear -0.54s infinite normal forwards running fade-5cf37fad-0164-4b3c-957d-7e385e234527;"><path d="M55.48-10.26L38.73-10.26L38.73-10.26Q39.15-6.90 41.08-5.01L41.08-5.01L41.08-5.01Q43.01-3.13 46.18-3.13L46.18-3.13L46.18-3.13Q48.25-3.13 49.91-3.56L49.91-3.56L49.91-3.56Q51.57-4.00 53.08-4.69L53.08-4.69L54.05-1.15L54.05-1.15Q52.39-0.37 50.32 0.09L50.32 0.09L50.32 0.09Q48.25 0.55 45.68 0.55L45.68 0.55L45.68 0.55Q43.10 0.55 41.03-0.30L41.03-0.30L41.03-0.30Q38.96-1.15 37.51-2.74L37.51-2.74L37.51-2.74Q36.06-4.32 35.28-6.65L35.28-6.65L35.28-6.65Q34.50-8.97 34.50-11.96L34.50-11.96L34.50-11.96Q34.50-14.63 35.28-16.93L35.28-16.93L35.28-16.93Q36.06-19.23 37.49-20.91L37.49-20.91L37.49-20.91Q38.92-22.59 40.89-23.53L40.89-23.53L40.89-23.53Q42.87-24.47 45.31-24.47L45.31-24.47L45.31-24.47Q47.89-24.47 49.82-23.60L49.82-23.60L49.82-23.60Q51.75-22.72 53.04-21.21L53.04-21.21L53.04-21.21Q54.33-19.69 54.97-17.66L54.97-17.66L54.97-17.66Q55.61-15.64 55.61-13.39L55.61-13.39L55.61-13.39Q55.61-11.78 55.48-10.26L55.48-10.26zM45.22-20.88L45.22-20.88L45.22-20.88Q42.50-20.88 40.78-19.04L40.78-19.04L40.78-19.04Q39.05-17.20 38.69-13.62L38.69-13.62L51.80-13.62L51.80-13.62Q51.80-17.11 50.05-19.00L50.05-19.00L50.05-19.00Q48.30-20.88 45.22-20.88" fill="#ff9b4f" stroke="none" stroke-width="none" transform="translate(-123.02496337890625,11.99417802290482)" style="fill: rgb(87, 140, 186);"></path></g><g class="path" style="opacity: 1; transform-origin: -46.76px -0.080822px; animation: 1s linear -0.48s infinite normal forwards running fade-5cf37fad-0164-4b3c-957d-7e385e234527;"><path d="M84.13-4.69L90.25-24.15L93.93-22.82L86.34 0L81.79 0L76.27-17.80L70.70 0L66.15 0L58.60-22.82L62.42-24.15L68.59-4.69L74.20-22.22L78.66-22.22L84.13-4.69" fill="#ff9b4f" stroke="none" stroke-width="none" transform="translate(-123.02496337890625,11.99417802290482)" style="fill: rgb(17, 210, 81);"></path></g><g class="path" style="opacity: 1; transform-origin: -17.295px 0.0341778px; animation: 1s linear -0.42s infinite normal forwards running fade-5cf37fad-0164-4b3c-957d-7e385e234527;"><path d="M96.69-1.93L98.44-5.38L98.44-5.38Q99.64-4.32 101.45-3.68L101.45-3.68L101.45-3.68Q103.27-3.04 105.34-3.04L105.34-3.04L105.34-3.04Q107.92-3.04 109.23-3.89L109.23-3.89L109.23-3.89Q110.54-4.74 110.54-6.07L110.54-6.07L110.54-6.07Q110.54-6.76 110.28-7.36L110.28-7.36L110.28-7.36Q110.03-7.96 109.36-8.51L109.36-8.51L109.36-8.51Q108.70-9.06 107.55-9.59L107.55-9.59L107.55-9.59Q106.40-10.12 104.56-10.76L104.56-10.76L104.56-10.76Q101.15-11.91 99.50-13.50L99.50-13.50L99.50-13.50Q97.84-15.09 97.84-17.89L97.84-17.89L97.84-17.89Q97.84-19.27 98.46-20.47L98.46-20.47L98.46-20.47Q99.08-21.67 100.26-22.56L100.26-22.56L100.26-22.56Q101.43-23.46 103.11-23.97L103.11-23.97L103.11-23.97Q104.79-24.47 106.95-24.47L106.95-24.47L106.95-24.47Q109.30-24.47 111.07-23.99L111.07-23.99L111.07-23.99Q112.84-23.51 114.26-22.77L114.26-22.77L113.11-19.37L113.11-19.37Q111.87-20.10 110.28-20.56L110.28-20.56L110.28-20.56Q108.70-21.02 106.77-21.02L106.77-21.02L106.77-21.02Q104.37-21.02 103.13-20.06L103.13-20.06L103.13-20.06Q101.89-19.09 101.89-17.94L101.89-17.94L101.89-17.94Q101.89-17.39 102.10-16.93L102.10-16.93L102.10-16.93Q102.30-16.47 102.86-16.05L102.86-16.05L102.86-16.05Q103.41-15.64 104.33-15.23L104.33-15.23L104.33-15.23Q105.25-14.81 106.63-14.35L106.63-14.35L106.63-14.35Q108.88-13.57 110.45-12.77L110.45-12.77L110.45-12.77Q112.01-11.96 112.98-10.99L112.98-10.99L112.98-10.99Q113.94-10.03 114.36-8.90L114.36-8.90L114.36-8.90Q114.77-7.77 114.77-6.39L114.77-6.39L114.77-6.39Q114.77-4.78 114.08-3.50L114.08-3.50L114.08-3.50Q113.39-2.21 112.15-1.31L112.15-1.31L112.15-1.31Q110.91-0.41 109.13 0.07L109.13 0.07L109.13 0.07Q107.36 0.55 105.20 0.55L105.20 0.55L105.20 0.55Q102.44 0.55 100.28-0.14L100.28-0.14L100.28-0.14Q98.12-0.83 96.69-1.93L96.69-1.93" fill="#ff9b4f" stroke="none" stroke-width="none" transform="translate(-123.02496337890625,11.99417802290482)" style="fill: rgb(255, 155, 79);"></path></g><g class="path" style="opacity: 1; transform-origin: 6.19004px -4.10582px; animation: 1s linear -0.36s infinite normal forwards running fade-5cf37fad-0164-4b3c-957d-7e385e234527;"><path d="M117.99-2.71L120.20-6.39L120.20-6.39Q121.85-5.01 123.92-4.14L123.92-4.14L123.92-4.14Q125.99-3.27 128.75-3.27L128.75-3.27L128.75-3.27Q132.07-3.27 134.00-4.65L134.00-4.65L134.00-4.65Q135.93-6.03 135.93-8.37L135.93-8.37L135.93-8.37Q135.93-9.34 135.65-10.17L135.65-10.17L135.65-10.17Q135.38-10.99 134.57-11.75L134.57-11.75L134.57-11.75Q133.77-12.51 132.32-13.27L132.32-13.27L132.32-13.27Q130.87-14.03 128.57-14.90L128.57-14.90L128.57-14.90Q126.09-15.87 124.36-16.81L124.36-16.81L124.36-16.81Q122.64-17.76 121.58-18.88L121.58-18.88L121.58-18.88Q120.52-20.01 120.06-21.37L120.06-21.37L120.06-21.37Q119.60-22.72 119.60-24.47L119.60-24.47L119.60-24.47Q119.60-26.17 120.31-27.69L120.31-27.69L120.31-27.69Q121.03-29.21 122.43-30.34L122.43-30.34L122.43-30.34Q123.83-31.46 125.88-32.11L125.88-32.11L125.88-32.11Q127.93-32.75 130.55-32.75L130.55-32.75L130.55-32.75Q133.40-32.75 135.65-32.18L135.65-32.18L135.65-32.18Q137.91-31.60 140.12-30.54L140.12-30.54L138.51-26.82L138.51-26.82Q136.94-27.74 134.85-28.36L134.85-28.36L134.85-28.36Q132.76-28.98 130.46-28.98L130.46-28.98L130.46-28.98Q127.42-28.98 125.67-27.81L125.67-27.81L125.67-27.81Q123.92-26.63 123.92-24.70L123.92-24.70L123.92-24.70Q123.92-23.78 124.18-23.07L124.18-23.07L124.18-23.07Q124.43-22.36 125.19-21.69L125.19-21.69L125.19-21.69Q125.95-21.02 127.30-20.33L127.30-20.33L127.30-20.33Q128.66-19.64 130.92-18.81L130.92-18.81L130.92-18.81Q133.58-17.80 135.42-16.74L135.42-16.74L135.42-16.74Q137.26-15.69 138.37-14.49L138.37-14.49L138.37-14.49Q139.47-13.29 139.95-11.91L139.95-11.91L139.95-11.91Q140.44-10.53 140.44-8.88L140.44-8.88L140.44-8.88Q140.44-6.62 139.56-4.88L139.56-4.88L139.56-4.88Q138.69-3.13 137.15-1.91L137.15-1.91L137.15-1.91Q135.61-0.69 133.45-0.07L133.45-0.07L133.45-0.07Q131.28 0.55 128.75 0.55L128.75 0.55L128.75 0.55Q125.40 0.55 122.64-0.34L122.64-0.34L122.64-0.34Q119.88-1.24 117.99-2.71L117.99-2.71" fill="#ff9b4f" stroke="none" stroke-width="none" transform="translate(-123.02496337890625,11.99417802290482)" style="fill: rgb(87, 140, 186);"></path></g><g class="path" style="opacity: 1; transform-origin: 32.34px 0.0341778px; animation: 1s linear -0.3s infinite normal forwards running fade-5cf37fad-0164-4b3c-957d-7e385e234527;"><path d="M165.78-10.26L149.04-10.26L149.04-10.26Q149.45-6.90 151.39-5.01L151.39-5.01L151.39-5.01Q153.32-3.13 156.49-3.13L156.49-3.13L156.49-3.13Q158.56-3.13 160.22-3.56L160.22-3.56L160.22-3.56Q161.87-4.00 163.39-4.69L163.39-4.69L164.36-1.15L164.36-1.15Q162.70-0.37 160.63 0.09L160.63 0.09L160.63 0.09Q158.56 0.55 155.99 0.55L155.99 0.55L155.99 0.55Q153.41 0.55 151.34-0.30L151.34-0.30L151.34-0.30Q149.27-1.15 147.82-2.74L147.82-2.74L147.82-2.74Q146.37-4.32 145.59-6.65L145.59-6.65L145.59-6.65Q144.81-8.97 144.81-11.96L144.81-11.96L144.81-11.96Q144.81-14.63 145.59-16.93L145.59-16.93L145.59-16.93Q146.37-19.23 147.80-20.91L147.80-20.91L147.80-20.91Q149.22-22.59 151.20-23.53L151.20-23.53L151.20-23.53Q153.18-24.47 155.62-24.47L155.62-24.47L155.62-24.47Q158.19-24.47 160.13-23.60L160.13-23.60L160.13-23.60Q162.06-22.72 163.35-21.21L163.35-21.21L163.35-21.21Q164.63-19.69 165.28-17.66L165.28-17.66L165.28-17.66Q165.92-15.64 165.92-13.39L165.92-13.39L165.92-13.39Q165.92-11.78 165.78-10.26L165.78-10.26zM155.53-20.88L155.53-20.88L155.53-20.88Q152.81-20.88 151.09-19.04L151.09-19.04L151.09-19.04Q149.36-17.20 148.99-13.62L148.99-13.62L162.10-13.62L162.10-13.62Q162.10-17.11 160.36-19.00L160.36-19.00L160.36-19.00Q158.61-20.88 155.53-20.88" fill="#ff9b4f" stroke="none" stroke-width="none" transform="translate(-123.02496337890625,11.99417802290482)" style="fill: rgb(17, 210, 81);"></path></g><g class="path" style="opacity: 1; transform-origin: 58.465px -0.240822px; animation: 1s linear -0.24s infinite normal forwards running fade-5cf37fad-0164-4b3c-957d-7e385e234527;"><path d="M175.44-23.92L175.44-19.92L175.44-19.92Q176.73-21.85 178.73-23.16L178.73-23.16L178.73-23.16Q180.73-24.47 183.49-24.47L183.49-24.47L183.49-24.47Q187.54-24.47 189.54-22.03L189.54-22.03L189.54-22.03Q191.54-19.60 191.54-15.59L191.54-15.59L191.54 0L187.40 0L187.40-15.13L187.40-15.13Q187.40-17.76 186.21-19.30L186.21-19.30L186.21-19.30Q185.01-20.84 182.80-20.84L182.80-20.84L182.80-20.84Q181.75-20.84 180.73-20.45L180.73-20.45L180.73-20.45Q179.72-20.06 178.78-19.37L178.78-19.37L178.78-19.37Q177.84-18.68 177.03-17.76L177.03-17.76L177.03-17.76Q176.23-16.84 175.58-15.82L175.58-15.82L175.58 0L171.44 0L171.44-23.92L175.44-23.92" fill="#ff9b4f" stroke="none" stroke-width="none" transform="translate(-123.02496337890625,11.99417802290482)" style="fill: rgb(255, 155, 79);"></path></g><g class="path" style="opacity: 1; transform-origin: 82.615px 0.0341778px; animation: 1s linear -0.18s infinite normal forwards running fade-5cf37fad-0164-4b3c-957d-7e385e234527;"><path d="M196.60-1.93L198.35-5.38L198.35-5.38Q199.55-4.32 201.37-3.68L201.37-3.68L201.37-3.68Q203.18-3.04 205.25-3.04L205.25-3.04L205.25-3.04Q207.83-3.04 209.14-3.89L209.14-3.89L209.14-3.89Q210.45-4.74 210.45-6.07L210.45-6.07L210.45-6.07Q210.45-6.76 210.20-7.36L210.20-7.36L210.20-7.36Q209.94-7.96 209.28-8.51L209.28-8.51L209.28-8.51Q208.61-9.06 207.46-9.59L207.46-9.59L207.46-9.59Q206.31-10.12 204.47-10.76L204.47-10.76L204.47-10.76Q201.07-11.91 199.41-13.50L199.41-13.50L199.41-13.50Q197.75-15.09 197.75-17.89L197.75-17.89L197.75-17.89Q197.75-19.27 198.38-20.47L198.38-20.47L198.38-20.47Q199.00-21.67 200.17-22.56L200.17-22.56L200.17-22.56Q201.34-23.46 203.02-23.97L203.02-23.97L203.02-23.97Q204.70-24.47 206.86-24.47L206.86-24.47L206.86-24.47Q209.21-24.47 210.98-23.99L210.98-23.99L210.98-23.99Q212.75-23.51 214.18-22.77L214.18-22.77L213.03-19.37L213.03-19.37Q211.78-20.10 210.20-20.56L210.20-20.56L210.20-20.56Q208.61-21.02 206.68-21.02L206.68-21.02L206.68-21.02Q204.29-21.02 203.04-20.06L203.04-20.06L203.04-20.06Q201.80-19.09 201.80-17.94L201.80-17.94L201.80-17.94Q201.80-17.39 202.01-16.93L202.01-16.93L202.01-16.93Q202.22-16.47 202.77-16.05L202.77-16.05L202.77-16.05Q203.32-15.64 204.24-15.23L204.24-15.23L204.24-15.23Q205.16-14.81 206.54-14.35L206.54-14.35L206.54-14.35Q208.79-13.57 210.36-12.77L210.36-12.77L210.36-12.77Q211.92-11.96 212.89-10.99L212.89-10.99L212.89-10.99Q213.85-10.03 214.27-8.90L214.27-8.90L214.27-8.90Q214.68-7.77 214.68-6.39L214.68-6.39L214.68-6.39Q214.68-4.78 213.99-3.50L213.99-3.50L213.99-3.50Q213.30-2.21 212.06-1.31L212.06-1.31L212.06-1.31Q210.82-0.41 209.05 0.07L209.05 0.07L209.05 0.07Q207.28 0.55 205.11 0.55L205.11 0.55L205.11 0.55Q202.35 0.55 200.19-0.14L200.19-0.14L200.19-0.14Q198.03-0.83 196.60-1.93L196.60-1.93" fill="#ff9b4f" stroke="none" stroke-width="none" transform="translate(-123.02496337890625,11.99417802290482)" style="fill: rgb(87, 140, 186);"></path></g><g class="path" style="opacity: 1; transform-origin: 106.125px 0.0341778px; animation: 1s linear -0.12s infinite normal forwards running fade-5cf37fad-0164-4b3c-957d-7e385e234527;"><path d="M239.57-10.26L222.82-10.26L222.82-10.26Q223.24-6.90 225.17-5.01L225.17-5.01L225.17-5.01Q227.10-3.13 230.28-3.13L230.28-3.13L230.28-3.13Q232.35-3.13 234.00-3.56L234.00-3.56L234.00-3.56Q235.66-4.00 237.18-4.69L237.18-4.69L238.14-1.15L238.14-1.15Q236.49-0.37 234.42 0.09L234.42 0.09L234.42 0.09Q232.35 0.55 229.77 0.55L229.77 0.55L229.77 0.55Q227.19 0.55 225.12-0.30L225.12-0.30L225.12-0.30Q223.05-1.15 221.60-2.74L221.60-2.74L221.60-2.74Q220.16-4.32 219.37-6.65L219.37-6.65L219.37-6.65Q218.59-8.97 218.59-11.96L218.59-11.96L218.59-11.96Q218.59-14.63 219.37-16.93L219.37-16.93L219.37-16.93Q220.16-19.23 221.58-20.91L221.58-20.91L221.58-20.91Q223.01-22.59 224.99-23.53L224.99-23.53L224.99-23.53Q226.96-24.47 229.40-24.47L229.40-24.47L229.40-24.47Q231.98-24.47 233.91-23.60L233.91-23.60L233.91-23.60Q235.84-22.72 237.13-21.21L237.13-21.21L237.13-21.21Q238.42-19.69 239.06-17.66L239.06-17.66L239.06-17.66Q239.71-15.64 239.71-13.39L239.71-13.39L239.71-13.39Q239.71-11.78 239.57-10.26L239.57-10.26zM229.31-20.88L229.31-20.88L229.31-20.88Q226.60-20.88 224.87-19.04L224.87-19.04L224.87-19.04Q223.15-17.20 222.78-13.62L222.78-13.62L235.89-13.62L235.89-13.62Q235.89-17.11 234.14-19.00L234.14-19.00L234.14-19.00Q232.39-20.88 229.31-20.88" fill="#ff9b4f" stroke="none" stroke-width="none" transform="translate(-123.02496337890625,11.99417802290482)" style="fill: rgb(17, 210, 81);"></path></g><g class="path" style="opacity: 1; transform-origin: 124.275px 0.0341778px; animation: 1s linear -0.06s infinite normal forwards running fade-5cf37fad-0164-4b3c-957d-7e385e234527;"><path d="M249.37-23.92L249.37 0L245.23 0L245.23-23.92L249.37-23.92" fill="#ff9b4f" stroke="none" stroke-width="none" transform="translate(-123.02496337890625,11.99417802290482)" style="fill: rgb(255, 155, 79);"></path></g><g class="path" style="opacity: 1; transform-origin: 124.27px -18.9158px; animation: 1s linear 0s infinite normal forwards running fade-5cf37fad-0164-4b3c-957d-7e385e234527;"><path d="M247.30-28.01L247.30-28.01L247.30-28.01Q246.10-28.01 245.25-28.86L245.25-28.86L245.25-28.86Q244.40-29.72 244.40-30.91L244.40-30.91L244.40-30.91Q244.40-32.25 245.18-33.03L245.18-33.03L245.18-33.03Q245.96-33.81 247.30-33.81L247.30-33.81L247.30-33.81Q248.49-33.81 249.34-32.96L249.34-32.96L249.34-32.96Q250.19-32.11 250.19-30.91L250.19-30.91L250.19-30.91Q250.19-29.58 249.41-28.80L249.41-28.80L249.41-28.80Q248.63-28.01 247.30-28.01" fill="#ff9b4f" stroke="none" stroke-width="none" transform="translate(-123.02496337890625,11.99417802290482)" style="fill: rgb(87, 140, 186);"></path></g></g>
</g>
</g>
<style id="fade-5cf37fad-0164-4b3c-957d-7e385e234527" data-anikit="">@keyframes fade-5cf37fad-0164-4b3c-957d-7e385e234527
{
  0% {
    animation-timing-function: cubic-bezier(0.2057,0.573,0.3723,0.9184);
    opacity: 1;
  }
  100% {
    opacity: 0;
  }
}</style></svg>